<svg data-name="Group 3613" xmlns="http://www.w3.org/2000/svg" width="102.652" height="20.654"><g data-name="Group 3608"><g data-name="Group 3600"><path data-name="Path 1642" d="M42.606 2.344a.914.914 0 10-.936-.914.926.926 0 00.936.914" fill="#fff"/></g><g data-name="Group 3601"><path data-name="Rectangle 38" fill="#fff" d="M41.875 4.106h1.461v12.142h-1.461z"/></g><g data-name="Group 3602"><path data-name="Path 1643" d="M17.305 16.232a5.935 5.935 0 004.548-2.1v2.117h1.462V4.105h-1.462v2.079a5.936 5.936 0 00-4.548-2.079 6.064 6.064 0 000 12.127m-4.546-6.088a4.548 4.548 0 119.094 0v.191a4.548 4.548 0 11-9.094-.191" fill="#fff"/></g><g data-name="Group 3603"><path data-name="Path 1644" d="M39.178 10.171a6.03 6.03 0 00-6.009-6.039 5.933 5.933 0 00-4.546 2.078V4.132H27.16V20.65h1.463v-6.494a5.93 5.93 0 004.546 2.1 6.055 6.055 0 006.009-6.087m-6.009 4.66a4.587 4.587 0 01-4.547-4.47v-.188a4.548 4.548 0 114.546 4.66" fill="#fff"/></g><g data-name="Group 3604"><path data-name="Path 1645" d="M66.524 4.105a5.089 5.089 0 00-3.652 1.528V4.105h-1.413v12.143h1.413V9.056a3.668 3.668 0 013.652-3.547 3.59 3.59 0 013.628 3.544v7.2h1.436v-7.2a5.012 5.012 0 00-5.064-4.947" fill="#fff"/></g><g data-name="Group 3605"><path data-name="Path 1646" d="M75.955 0v4.078h-1.734v1.394h1.734v8.309a2.577 2.577 0 00.526 1.87 1.91 1.91 0 001.476.568 3.32 3.32 0 001.182-.18l.08-.033-.072-1.17-.146.038a2.725 2.725 0 01-.709.082c-.588 0-.839-.365-.839-1.218V5.471h1.725V4.077h-1.725V-.001" fill="#fff"/></g><g data-name="Group 3606"><path data-name="Path 1647" d="M56.3 12.755a4.491 4.491 0 01-3.811 2.09 4.626 4.626 0 01-4.589-4.322h9.854a.681.681 0 00.718-.653v-.107a6.017 6.017 0 10-5.983 6.485 5.94 5.94 0 005.008-2.73zm-3.811-7.23a4.53 4.53 0 014.422 3.619h-8.917a4.583 4.583 0 014.494-3.619" fill="#fff"/></g><g data-name="Group 3607"><path data-name="Path 1648" d="M7.935 10.387a3.992 3.992 0 00-.789-.456 14.727 14.727 0 00-2.216-.655c-.166-.039-.325-.073-.478-.111a5.456 5.456 0 01-1.912-.8 1.3 1.3 0 01-.6-1.121 1.659 1.659 0 01.78-1.233 3.613 3.613 0 012.26-.556 4.87 4.87 0 012.658 1.149l.081.057 1.064-.966a3.308 3.308 0 00-.509-.376 6.189 6.189 0 00-3.236-1.194 5.44 5.44 0 00-3.087.693A2.978 2.978 0 00.478 7.183a2.421 2.421 0 00.83 1.97 6.735 6.735 0 003.308 1.418 5.986 5.986 0 012.424.941 1.754 1.754 0 01.764 1.4 1.7 1.7 0 01-.935 1.325 3.635 3.635 0 01-2.262.605 6.239 6.239 0 01-3.483-1.433l-.082-.063-1.043.935.1.088a7.469 7.469 0 004.441 1.876 5.146 5.146 0 003.145-.838 3.131 3.131 0 001.55-2.433 3.04 3.04 0 00-1.307-2.584" fill="#fff"/></g></g><g data-name="Group 3612"><g data-name="Group 3609"><path data-name="Path 1649" d="M89.215 16.131l-.707-1.638h-2.89l-.752 1.638h-1.091l3.336-7.166 3.221 7.166zm-3.167-2.594h2.048l-1-2.29z" fill="#2a86c9"/></g><g data-name="Group 3610"><path data-name="Path 1650" d="M94.645 13.575v-.957h2.791v.224a4.132 4.132 0 01-.179 1.351 2.931 2.931 0 01-1.158 1.521 3.215 3.215 0 01-1.821.545 3.287 3.287 0 01-2.428-1.02 3.542 3.542 0 01.022-4.969 3.422 3.422 0 012.5-1.015 3.245 3.245 0 011.463.322 4.441 4.441 0 011.3 1.055l-.725.689a2.466 2.466 0 00-2.022-1.1 2.422 2.422 0 00-1.793.738 2.491 2.491 0 00-.729 1.82 2.421 2.421 0 00.747 1.8 2.366 2.366 0 001.7.729 2.036 2.036 0 001.355-.514 1.776 1.776 0 00.667-1.221z" fill="#2a86c9"/></g><g data-name="Group 3611"><path data-name="Path 1651" d="M98.122 16.133l2.344-2.836a11.293 11.293 0 00.944-1.266 1.485 1.485 0 00.237-.729 1.048 1.048 0 00-.331-.8 1.151 1.151 0 00-.823-.313q-1.029 0-1.172 1.217H98.31a2.524 2.524 0 01.68-1.592 2.067 2.067 0 011.5-.545 2.146 2.146 0 011.521.586 1.9 1.9 0 01.626 1.445 2.206 2.206 0 01-.282 1.083 10.972 10.972 0 01-1.168 1.547l-1.055 1.243h2.514v.958z" fill="#2a86c9"/></g></g></svg>